<mxfile host="app.diagrams.net" modified="2022-05-21T15:00:52.054Z" agent="5.0 (Macintosh; Intel Mac OS X 10_15_7) AppleWebKit/537.36 (KHTML, like Gecko) Chrome/101.0.4951.64 Safari/537.36" etag="R9WmMxd7LDcVphCVFV9y" version="17.4.6" type="github">
  <diagram id="oM6h9SsoUexSCo5z9NOw" name="第 1 页">
    <mxGraphModel dx="1039" dy="779" grid="1" gridSize="10" guides="1" tooltips="1" connect="1" arrows="1" fold="1" page="1" pageScale="1" pageWidth="1169" pageHeight="1654" math="0" shadow="0">
      <root>
        <mxCell id="0" />
        <mxCell id="1" parent="0" />
        <mxCell id="7jz7HBOH-z8YSX1MM9xR-27" style="edgeStyle=none;rounded=0;orthogonalLoop=1;jettySize=auto;html=1;entryX=0.9;entryY=-0.08;entryDx=0;entryDy=0;entryPerimeter=0;fontSize=25;strokeWidth=2;sketch=1;" edge="1" parent="1" source="7jz7HBOH-z8YSX1MM9xR-1" target="7jz7HBOH-z8YSX1MM9xR-4">
          <mxGeometry relative="1" as="geometry" />
        </mxCell>
        <mxCell id="7jz7HBOH-z8YSX1MM9xR-1" value="&lt;font style=&quot;font-size: 25px&quot;&gt;10&lt;/font&gt;" style="rounded=0;whiteSpace=wrap;html=1;fillColor=#6a00ff;fontColor=#ffffff;strokeColor=#3700CC;" vertex="1" parent="1">
          <mxGeometry x="440" y="120" width="60" height="50" as="geometry" />
        </mxCell>
        <mxCell id="7jz7HBOH-z8YSX1MM9xR-26" style="edgeStyle=none;rounded=0;orthogonalLoop=1;jettySize=auto;html=1;fontSize=25;strokeWidth=2;sketch=1;" edge="1" parent="1" source="7jz7HBOH-z8YSX1MM9xR-2">
          <mxGeometry relative="1" as="geometry">
            <mxPoint x="640" y="240" as="targetPoint" />
          </mxGeometry>
        </mxCell>
        <mxCell id="7jz7HBOH-z8YSX1MM9xR-2" value="&lt;span style=&quot;font-size: 25px&quot;&gt;16&lt;/span&gt;" style="rounded=0;whiteSpace=wrap;html=1;fillColor=#6a00ff;fontColor=#ffffff;strokeColor=#3700CC;" vertex="1" parent="1">
          <mxGeometry x="500" y="120" width="60" height="50" as="geometry" />
        </mxCell>
        <mxCell id="7jz7HBOH-z8YSX1MM9xR-30" style="edgeStyle=none;rounded=0;orthogonalLoop=1;jettySize=auto;html=1;entryX=0.5;entryY=0;entryDx=0;entryDy=0;fontSize=25;strokeWidth=2;sketch=1;" edge="1" parent="1" source="7jz7HBOH-z8YSX1MM9xR-3" target="7jz7HBOH-z8YSX1MM9xR-10">
          <mxGeometry relative="1" as="geometry" />
        </mxCell>
        <mxCell id="7jz7HBOH-z8YSX1MM9xR-3" value="&lt;span style=&quot;font-size: 25px&quot;&gt;5&lt;/span&gt;" style="rounded=0;whiteSpace=wrap;html=1;fillColor=#0050ef;fontColor=#ffffff;strokeColor=#001DBC;" vertex="1" parent="1">
          <mxGeometry x="250" y="241" width="60" height="50" as="geometry" />
        </mxCell>
        <mxCell id="7jz7HBOH-z8YSX1MM9xR-29" style="edgeStyle=none;rounded=0;orthogonalLoop=1;jettySize=auto;html=1;exitX=0.5;exitY=1;exitDx=0;exitDy=0;entryX=0.5;entryY=0;entryDx=0;entryDy=0;fontSize=25;strokeWidth=2;sketch=1;" edge="1" parent="1" source="7jz7HBOH-z8YSX1MM9xR-4" target="7jz7HBOH-z8YSX1MM9xR-12">
          <mxGeometry relative="1" as="geometry" />
        </mxCell>
        <mxCell id="7jz7HBOH-z8YSX1MM9xR-4" value="&lt;span style=&quot;font-size: 25px&quot;&gt;10&lt;/span&gt;" style="rounded=0;whiteSpace=wrap;html=1;fillColor=#0050ef;fontColor=#ffffff;strokeColor=#001DBC;" vertex="1" parent="1">
          <mxGeometry x="310" y="241" width="60" height="50" as="geometry" />
        </mxCell>
        <mxCell id="7jz7HBOH-z8YSX1MM9xR-28" style="edgeStyle=none;rounded=0;orthogonalLoop=1;jettySize=auto;html=1;fontSize=25;strokeWidth=2;entryX=0.5;entryY=0;entryDx=0;entryDy=0;sketch=1;" edge="1" parent="1" source="7jz7HBOH-z8YSX1MM9xR-5" target="7jz7HBOH-z8YSX1MM9xR-14">
          <mxGeometry relative="1" as="geometry">
            <mxPoint x="360" y="430" as="targetPoint" />
            <Array as="points">
              <mxPoint x="360" y="430" />
            </Array>
          </mxGeometry>
        </mxCell>
        <mxCell id="7jz7HBOH-z8YSX1MM9xR-5" value="&lt;span style=&quot;font-size: 25px&quot;&gt;13&lt;/span&gt;" style="rounded=0;whiteSpace=wrap;html=1;fillColor=#0050ef;fontColor=#ffffff;strokeColor=#001DBC;" vertex="1" parent="1">
          <mxGeometry x="370" y="241" width="60" height="50" as="geometry" />
        </mxCell>
        <mxCell id="7jz7HBOH-z8YSX1MM9xR-31" style="edgeStyle=none;rounded=0;orthogonalLoop=1;jettySize=auto;html=1;entryX=0.5;entryY=0;entryDx=0;entryDy=0;fontSize=25;strokeWidth=2;sketch=1;" edge="1" parent="1" source="7jz7HBOH-z8YSX1MM9xR-7" target="7jz7HBOH-z8YSX1MM9xR-18">
          <mxGeometry relative="1" as="geometry" />
        </mxCell>
        <mxCell id="7jz7HBOH-z8YSX1MM9xR-7" value="&lt;span style=&quot;font-size: 25px&quot;&gt;16&lt;/span&gt;" style="rounded=0;whiteSpace=wrap;html=1;fillColor=#0050ef;fontColor=#ffffff;strokeColor=#001DBC;" vertex="1" parent="1">
          <mxGeometry x="610" y="241" width="60" height="50" as="geometry" />
        </mxCell>
        <mxCell id="7jz7HBOH-z8YSX1MM9xR-32" style="edgeStyle=none;rounded=0;orthogonalLoop=1;jettySize=auto;html=1;exitX=0.5;exitY=1;exitDx=0;exitDy=0;entryX=0.5;entryY=0;entryDx=0;entryDy=0;fontSize=25;strokeWidth=2;sketch=1;" edge="1" parent="1" source="7jz7HBOH-z8YSX1MM9xR-8" target="7jz7HBOH-z8YSX1MM9xR-22">
          <mxGeometry relative="1" as="geometry" />
        </mxCell>
        <mxCell id="7jz7HBOH-z8YSX1MM9xR-8" value="&lt;span style=&quot;font-size: 25px&quot;&gt;22&lt;/span&gt;" style="rounded=0;whiteSpace=wrap;html=1;fillColor=#0050ef;fontColor=#ffffff;strokeColor=#001DBC;" vertex="1" parent="1">
          <mxGeometry x="670" y="241" width="60" height="50" as="geometry" />
        </mxCell>
        <mxCell id="7jz7HBOH-z8YSX1MM9xR-33" style="edgeStyle=none;rounded=0;orthogonalLoop=1;jettySize=auto;html=1;entryX=0.5;entryY=0;entryDx=0;entryDy=0;fontSize=25;strokeWidth=2;sketch=1;" edge="1" parent="1" source="7jz7HBOH-z8YSX1MM9xR-9" target="7jz7HBOH-z8YSX1MM9xR-23">
          <mxGeometry relative="1" as="geometry" />
        </mxCell>
        <mxCell id="7jz7HBOH-z8YSX1MM9xR-9" value="&lt;span style=&quot;font-size: 25px&quot;&gt;30&lt;/span&gt;" style="rounded=0;whiteSpace=wrap;html=1;fillColor=#0050ef;fontColor=#ffffff;strokeColor=#001DBC;" vertex="1" parent="1">
          <mxGeometry x="730" y="241" width="60" height="50" as="geometry" />
        </mxCell>
        <mxCell id="7jz7HBOH-z8YSX1MM9xR-40" style="edgeStyle=none;rounded=0;sketch=1;orthogonalLoop=1;jettySize=auto;html=1;entryX=0.5;entryY=0;entryDx=0;entryDy=0;dashed=1;fontSize=25;strokeWidth=2;" edge="1" parent="1" source="7jz7HBOH-z8YSX1MM9xR-10" target="7jz7HBOH-z8YSX1MM9xR-39">
          <mxGeometry relative="1" as="geometry" />
        </mxCell>
        <mxCell id="7jz7HBOH-z8YSX1MM9xR-10" value="&lt;span style=&quot;font-size: 25px&quot;&gt;5&lt;/span&gt;" style="rounded=0;whiteSpace=wrap;html=1;fillColor=#d80073;fontColor=#ffffff;strokeColor=#A50040;" vertex="1" parent="1">
          <mxGeometry x="20" y="440" width="60" height="50" as="geometry" />
        </mxCell>
        <mxCell id="7jz7HBOH-z8YSX1MM9xR-11" value="&lt;span style=&quot;font-size: 25px&quot;&gt;8&lt;/span&gt;" style="rounded=0;whiteSpace=wrap;html=1;fillColor=#d80073;fontColor=#ffffff;strokeColor=#A50040;" vertex="1" parent="1">
          <mxGeometry x="80" y="440" width="60" height="50" as="geometry" />
        </mxCell>
        <mxCell id="7jz7HBOH-z8YSX1MM9xR-47" style="edgeStyle=none;rounded=0;sketch=1;orthogonalLoop=1;jettySize=auto;html=1;entryX=0.5;entryY=0;entryDx=0;entryDy=0;dashed=1;fontSize=25;strokeWidth=2;" edge="1" parent="1" source="7jz7HBOH-z8YSX1MM9xR-12" target="7jz7HBOH-z8YSX1MM9xR-39">
          <mxGeometry relative="1" as="geometry" />
        </mxCell>
        <mxCell id="7jz7HBOH-z8YSX1MM9xR-12" value="&lt;span style=&quot;font-size: 25px&quot;&gt;10&lt;/span&gt;" style="rounded=0;whiteSpace=wrap;html=1;fillColor=#d80073;fontColor=#ffffff;strokeColor=#A50040;" vertex="1" parent="1">
          <mxGeometry x="140" y="440" width="60" height="50" as="geometry" />
        </mxCell>
        <mxCell id="7jz7HBOH-z8YSX1MM9xR-13" value="&lt;span style=&quot;font-size: 25px&quot;&gt;12&lt;/span&gt;" style="rounded=0;whiteSpace=wrap;html=1;fillColor=#d80073;fontColor=#ffffff;strokeColor=#A50040;" vertex="1" parent="1">
          <mxGeometry x="200" y="440" width="60" height="50" as="geometry" />
        </mxCell>
        <mxCell id="7jz7HBOH-z8YSX1MM9xR-43" style="edgeStyle=none;rounded=0;sketch=1;orthogonalLoop=1;jettySize=auto;html=1;entryX=0.557;entryY=-0.014;entryDx=0;entryDy=0;entryPerimeter=0;dashed=1;fontSize=25;strokeWidth=2;" edge="1" parent="1" source="7jz7HBOH-z8YSX1MM9xR-14" target="7jz7HBOH-z8YSX1MM9xR-41">
          <mxGeometry relative="1" as="geometry" />
        </mxCell>
        <mxCell id="7jz7HBOH-z8YSX1MM9xR-14" value="&lt;span style=&quot;font-size: 25px&quot;&gt;13&lt;/span&gt;" style="rounded=0;whiteSpace=wrap;html=1;fillColor=#d80073;fontColor=#ffffff;strokeColor=#A50040;" vertex="1" parent="1">
          <mxGeometry x="329" y="440" width="60" height="50" as="geometry" />
        </mxCell>
        <mxCell id="7jz7HBOH-z8YSX1MM9xR-15" value="&lt;span style=&quot;font-size: 25px&quot;&gt;14&lt;/span&gt;" style="rounded=0;whiteSpace=wrap;html=1;fillColor=#d80073;fontColor=#ffffff;strokeColor=#A50040;" vertex="1" parent="1">
          <mxGeometry x="389" y="440" width="60" height="50" as="geometry" />
        </mxCell>
        <mxCell id="7jz7HBOH-z8YSX1MM9xR-16" value="&lt;span style=&quot;font-size: 25px&quot;&gt;15&lt;/span&gt;" style="rounded=0;whiteSpace=wrap;html=1;fillColor=#d80073;fontColor=#ffffff;strokeColor=#A50040;" vertex="1" parent="1">
          <mxGeometry x="449" y="440" width="60" height="50" as="geometry" />
        </mxCell>
        <mxCell id="7jz7HBOH-z8YSX1MM9xR-45" style="edgeStyle=none;rounded=0;sketch=1;orthogonalLoop=1;jettySize=auto;html=1;entryX=0.457;entryY=-0.014;entryDx=0;entryDy=0;entryPerimeter=0;dashed=1;fontSize=25;strokeWidth=2;" edge="1" parent="1" source="7jz7HBOH-z8YSX1MM9xR-18" target="7jz7HBOH-z8YSX1MM9xR-42">
          <mxGeometry relative="1" as="geometry" />
        </mxCell>
        <mxCell id="7jz7HBOH-z8YSX1MM9xR-18" value="&lt;span style=&quot;font-size: 25px&quot;&gt;16&lt;/span&gt;" style="rounded=0;whiteSpace=wrap;html=1;fillColor=#d80073;fontColor=#ffffff;strokeColor=#A50040;" vertex="1" parent="1">
          <mxGeometry x="570" y="440" width="60" height="50" as="geometry" />
        </mxCell>
        <mxCell id="7jz7HBOH-z8YSX1MM9xR-19" value="&lt;span style=&quot;font-size: 25px&quot;&gt;18&lt;/span&gt;" style="rounded=0;whiteSpace=wrap;html=1;fillColor=#d80073;fontColor=#ffffff;strokeColor=#A50040;" vertex="1" parent="1">
          <mxGeometry x="630" y="440" width="60" height="50" as="geometry" />
        </mxCell>
        <mxCell id="7jz7HBOH-z8YSX1MM9xR-20" value="&lt;span style=&quot;font-size: 25px&quot;&gt;15&lt;/span&gt;" style="rounded=0;whiteSpace=wrap;html=1;fillColor=#d80073;fontColor=#ffffff;strokeColor=#A50040;" vertex="1" parent="1">
          <mxGeometry x="690" y="440" width="60" height="50" as="geometry" />
        </mxCell>
        <mxCell id="7jz7HBOH-z8YSX1MM9xR-21" value="&lt;span style=&quot;font-size: 25px&quot;&gt;20&lt;/span&gt;" style="rounded=0;whiteSpace=wrap;html=1;fillColor=#d80073;fontColor=#ffffff;strokeColor=#A50040;" vertex="1" parent="1">
          <mxGeometry x="750" y="440" width="60" height="50" as="geometry" />
        </mxCell>
        <mxCell id="7jz7HBOH-z8YSX1MM9xR-46" style="edgeStyle=none;rounded=0;sketch=1;orthogonalLoop=1;jettySize=auto;html=1;dashed=1;fontSize=25;strokeWidth=2;" edge="1" parent="1" source="7jz7HBOH-z8YSX1MM9xR-22">
          <mxGeometry relative="1" as="geometry">
            <mxPoint x="810" y="580" as="targetPoint" />
          </mxGeometry>
        </mxCell>
        <mxCell id="7jz7HBOH-z8YSX1MM9xR-22" value="&lt;span style=&quot;font-size: 25px&quot;&gt;22&lt;/span&gt;" style="rounded=0;whiteSpace=wrap;html=1;fillColor=#d80073;fontColor=#ffffff;strokeColor=#A50040;" vertex="1" parent="1">
          <mxGeometry x="810" y="440" width="60" height="50" as="geometry" />
        </mxCell>
        <mxCell id="7jz7HBOH-z8YSX1MM9xR-44" style="edgeStyle=none;rounded=0;sketch=1;orthogonalLoop=1;jettySize=auto;html=1;entryX=0.5;entryY=0;entryDx=0;entryDy=0;dashed=1;fontSize=25;strokeWidth=2;" edge="1" parent="1" source="7jz7HBOH-z8YSX1MM9xR-23" target="7jz7HBOH-z8YSX1MM9xR-42">
          <mxGeometry relative="1" as="geometry" />
        </mxCell>
        <mxCell id="7jz7HBOH-z8YSX1MM9xR-23" value="&lt;span style=&quot;font-size: 25px&quot;&gt;30&lt;/span&gt;" style="rounded=0;whiteSpace=wrap;html=1;fillColor=#d80073;fontColor=#ffffff;strokeColor=#A50040;" vertex="1" parent="1">
          <mxGeometry x="930" y="440" width="60" height="50" as="geometry" />
        </mxCell>
        <mxCell id="7jz7HBOH-z8YSX1MM9xR-39" value="&lt;table border=&quot;1&quot; width=&quot;100%&quot; cellpadding=&quot;4&quot; style=&quot;width: 100% ; height: 100% ; border-collapse: collapse&quot;&gt;&lt;tbody&gt;&lt;tr&gt;&lt;th align=&quot;center&quot;&gt;Data 1&lt;/th&gt;&lt;/tr&gt;&lt;tr&gt;&lt;td align=&quot;center&quot;&gt;Section 1.1&lt;br&gt;Section 1.2&lt;br&gt;Section 1.3&lt;/td&gt;&lt;/tr&gt;&lt;tr&gt;&lt;td align=&quot;center&quot;&gt;Section 2.1&lt;br&gt;Section 2.2&lt;br&gt;Section 2.3&lt;/td&gt;&lt;/tr&gt;&lt;/tbody&gt;&lt;/table&gt;" style="text;html=1;strokeColor=#A50040;fillColor=#d80073;overflow=fill;fontSize=25;fontColor=#ffffff;" vertex="1" parent="1">
          <mxGeometry x="50" y="580" width="140" height="140" as="geometry" />
        </mxCell>
        <mxCell id="7jz7HBOH-z8YSX1MM9xR-41" value="&lt;table border=&quot;1&quot; width=&quot;100%&quot; cellpadding=&quot;4&quot; style=&quot;width: 100% ; height: 100% ; border-collapse: collapse&quot;&gt;&lt;tbody&gt;&lt;tr&gt;&lt;th align=&quot;center&quot;&gt;Data 2&lt;/th&gt;&lt;/tr&gt;&lt;tr&gt;&lt;td align=&quot;center&quot;&gt;Section 1.1&lt;br&gt;Section 1.2&lt;br&gt;Section 1.3&lt;/td&gt;&lt;/tr&gt;&lt;tr&gt;&lt;td align=&quot;center&quot;&gt;Section 2.1&lt;br&gt;Section 2.2&lt;br&gt;Section 2.3&lt;/td&gt;&lt;/tr&gt;&lt;/tbody&gt;&lt;/table&gt;" style="text;html=1;strokeColor=#A50040;fillColor=#d80073;overflow=fill;fontSize=25;fontColor=#ffffff;" vertex="1" parent="1">
          <mxGeometry x="400" y="590" width="140" height="140" as="geometry" />
        </mxCell>
        <mxCell id="7jz7HBOH-z8YSX1MM9xR-42" value="&lt;table border=&quot;1&quot; width=&quot;100%&quot; cellpadding=&quot;4&quot; style=&quot;width: 100% ; height: 100% ; border-collapse: collapse&quot;&gt;&lt;tbody&gt;&lt;tr&gt;&lt;th align=&quot;center&quot;&gt;Data 3&lt;/th&gt;&lt;/tr&gt;&lt;tr&gt;&lt;td align=&quot;center&quot;&gt;Section 1.1&lt;br&gt;Section 1.2&lt;br&gt;Section 1.3&lt;/td&gt;&lt;/tr&gt;&lt;tr&gt;&lt;td align=&quot;center&quot;&gt;Section 2.1&lt;br&gt;Section 2.2&lt;br&gt;Section 2.3&lt;/td&gt;&lt;/tr&gt;&lt;/tbody&gt;&lt;/table&gt;" style="text;html=1;strokeColor=#A50040;fillColor=#d80073;overflow=fill;fontSize=25;fontColor=#ffffff;" vertex="1" parent="1">
          <mxGeometry x="740" y="590" width="140" height="140" as="geometry" />
        </mxCell>
      </root>
    </mxGraphModel>
  </diagram>
</mxfile>
